<svg width="118" height="49" viewBox="0 0 118 49" fill="none" xmlns="http://www.w3.org/2000/svg">
<circle cx="93.5" cy="24.5" r="24.5" fill="#067F3E"/>
<circle cx="24.5" cy="24.5" r="23.5" fill="#FDFFFE" stroke="black" stroke-width="2"/>
<path d="M80.7074 29.1278C80.0341 29.1278 79.4545 28.9915 78.9688 28.7188C78.4858 28.4432 78.1136 28.054 77.8523 27.5511C77.5909 27.0455 77.4602 26.4474 77.4602 25.7571C77.4602 25.0838 77.5909 24.4929 77.8523 23.9844C78.1136 23.4759 78.4815 23.0795 78.956 22.7955C79.4332 22.5114 79.9929 22.3693 80.6349 22.3693C81.0668 22.3693 81.4688 22.4389 81.8409 22.5781C82.2159 22.7145 82.5426 22.9205 82.821 23.196C83.1023 23.4716 83.321 23.8182 83.4773 24.2358C83.6335 24.6506 83.7116 25.1364 83.7116 25.6932V26.1918H78.1847V25.0668H82.0028C82.0028 24.8054 81.946 24.5739 81.8324 24.3722C81.7188 24.1705 81.5611 24.0128 81.3594 23.8991C81.1605 23.7827 80.929 23.7244 80.6648 23.7244C80.3892 23.7244 80.1449 23.7884 79.9318 23.9162C79.7216 24.0412 79.5568 24.2102 79.4375 24.4233C79.3182 24.6335 79.2571 24.8679 79.2543 25.1264V26.196C79.2543 26.5199 79.3139 26.7997 79.4332 27.0355C79.5554 27.2713 79.7273 27.4531 79.9489 27.581C80.1705 27.7088 80.4332 27.7727 80.7372 27.7727C80.9389 27.7727 81.1236 27.7443 81.2912 27.6875C81.4588 27.6307 81.6023 27.5455 81.7216 27.4318C81.8409 27.3182 81.9318 27.179 81.9943 27.0142L83.6733 27.125C83.5881 27.5284 83.4134 27.8807 83.1491 28.1818C82.8878 28.4801 82.5497 28.7131 82.1349 28.8807C81.723 29.0455 81.2472 29.1278 80.7074 29.1278ZM86.7116 25.2159V29H84.8963V22.4545H86.6264V23.6094H86.7031C86.848 23.2287 87.0909 22.9276 87.4318 22.706C87.7727 22.4815 88.1861 22.3693 88.6719 22.3693C89.1264 22.3693 89.5227 22.4688 89.8608 22.6676C90.1989 22.8665 90.4616 23.1506 90.6491 23.5199C90.8366 23.8864 90.9304 24.3239 90.9304 24.8324V29H89.1151V25.1562C89.1179 24.7557 89.0156 24.4432 88.8082 24.2188C88.6009 23.9915 88.3153 23.8778 87.9517 23.8778C87.7074 23.8778 87.4915 23.9304 87.304 24.0355C87.1193 24.1406 86.9744 24.294 86.8693 24.4957C86.767 24.6946 86.7145 24.9347 86.7116 25.2159ZM96.4393 24.696V26.1364H92.4592V24.696H96.4393ZM97.9862 29V22.4545H99.7461V23.5966H99.8143C99.9336 23.1903 100.134 22.8835 100.415 22.6761C100.696 22.4659 101.02 22.3608 101.387 22.3608C101.478 22.3608 101.576 22.3665 101.681 22.3778C101.786 22.3892 101.878 22.4048 101.958 22.4247V24.0355C101.873 24.0099 101.755 23.9872 101.604 23.9673C101.453 23.9474 101.316 23.9375 101.191 23.9375C100.924 23.9375 100.685 23.9957 100.475 24.1122C100.267 24.2259 100.103 24.3849 99.9805 24.5895C99.8612 24.794 99.8015 25.0298 99.8015 25.2969V29H97.9862ZM107.094 26.2131V22.4545H108.909V29H107.166V27.8111H107.098C106.95 28.1946 106.705 28.5028 106.361 28.7358C106.02 28.9687 105.604 29.0852 105.112 29.0852C104.675 29.0852 104.29 28.9858 103.957 28.7869C103.625 28.5881 103.365 28.3054 103.178 27.9389C102.993 27.5724 102.899 27.1335 102.896 26.6222V22.4545H104.712V26.2983C104.714 26.6847 104.818 26.9901 105.023 27.2145C105.227 27.4389 105.501 27.5511 105.845 27.5511C106.064 27.5511 106.268 27.5014 106.459 27.402C106.649 27.2997 106.803 27.1491 106.919 26.9503C107.038 26.7514 107.097 26.5057 107.094 26.2131Z" fill="#FFFCFC"/>
</svg>
