<svg width="118" height="49" viewBox="0 0 118 49" fill="none" xmlns="http://www.w3.org/2000/svg">
<circle cx="93.5" cy="24.5" r="24.5" fill="#067F3E"/>
<circle cx="24.5" cy="24.5" r="24.5" fill="#067F3E"/>
<path d="M9.72443 29V22.4545H11.4844V23.5966H11.5526C11.6719 23.1903 11.8722 22.8835 12.1534 22.6761C12.4347 22.4659 12.7585 22.3608 13.125 22.3608C13.2159 22.3608 13.3139 22.3665 13.419 22.3778C13.5241 22.3892 13.6165 22.4048 13.696 22.4247V24.0355C13.6108 24.0099 13.4929 23.9872 13.3423 23.9673C13.1918 23.9474 13.054 23.9375 12.929 23.9375C12.6619 23.9375 12.4233 23.9957 12.2131 24.1122C12.0057 24.2259 11.8409 24.3849 11.7188 24.5895C11.5994 24.794 11.5398 25.0298 11.5398 25.2969V29H9.72443ZM18.832 26.2131V22.4545H20.6474V29H18.9045V27.8111H18.8363C18.6886 28.1946 18.4428 28.5028 18.0991 28.7358C17.7582 28.9687 17.342 29.0852 16.8505 29.0852C16.413 29.0852 16.0281 28.9858 15.6957 28.7869C15.3633 28.5881 15.1033 28.3054 14.9158 27.9389C14.7312 27.5724 14.6374 27.1335 14.6346 26.6222V22.4545H16.4499V26.2983C16.4528 26.6847 16.5565 26.9901 16.761 27.2145C16.9656 27.4389 17.2397 27.5511 17.5835 27.5511C17.8022 27.5511 18.0067 27.5014 18.1971 27.402C18.3874 27.2997 18.5408 27.1491 18.6573 26.9503C18.7766 26.7514 18.8349 26.5057 18.832 26.2131ZM26.1776 24.696V26.1364H22.1974V24.696H26.1776ZM30.7074 29.1278C30.0341 29.1278 29.4545 28.9915 28.9688 28.7188C28.4858 28.4432 28.1136 28.054 27.8523 27.5511C27.5909 27.0455 27.4602 26.4474 27.4602 25.7571C27.4602 25.0838 27.5909 24.4929 27.8523 23.9844C28.1136 23.4759 28.4815 23.0795 28.956 22.7955C29.4332 22.5114 29.9929 22.3693 30.6349 22.3693C31.0668 22.3693 31.4688 22.4389 31.8409 22.5781C32.2159 22.7145 32.5426 22.9205 32.821 23.196C33.1023 23.4716 33.321 23.8182 33.4773 24.2358C33.6335 24.6506 33.7116 25.1364 33.7116 25.6932V26.1918H28.1847V25.0668H32.0028C32.0028 24.8054 31.946 24.5739 31.8324 24.3722C31.7188 24.1705 31.5611 24.0128 31.3594 23.8991C31.1605 23.7827 30.929 23.7244 30.6648 23.7244C30.3892 23.7244 30.1449 23.7884 29.9318 23.9162C29.7216 24.0412 29.5568 24.2102 29.4375 24.4233C29.3182 24.6335 29.2571 24.8679 29.2543 25.1264V26.196C29.2543 26.5199 29.3139 26.7997 29.4332 27.0355C29.5554 27.2713 29.7273 27.4531 29.9489 27.581C30.1705 27.7088 30.4332 27.7727 30.7372 27.7727C30.9389 27.7727 31.1236 27.7443 31.2912 27.6875C31.4588 27.6307 31.6023 27.5455 31.7216 27.4318C31.8409 27.3182 31.9318 27.179 31.9943 27.0142L33.6733 27.125C33.5881 27.5284 33.4134 27.8807 33.1491 28.1818C32.8878 28.4801 32.5497 28.7131 32.1349 28.8807C31.723 29.0455 31.2472 29.1278 30.7074 29.1278ZM36.7116 25.2159V29H34.8963V22.4545H36.6264V23.6094H36.7031C36.848 23.2287 37.0909 22.9276 37.4318 22.706C37.7727 22.4815 38.1861 22.3693 38.6719 22.3693C39.1264 22.3693 39.5227 22.4688 39.8608 22.6676C40.1989 22.8665 40.4616 23.1506 40.6491 23.5199C40.8366 23.8864 40.9304 24.3239 40.9304 24.8324V29H39.1151V25.1562C39.1179 24.7557 39.0156 24.4432 38.8082 24.2188C38.6009 23.9915 38.3153 23.8778 37.9517 23.8778C37.7074 23.8778 37.4915 23.9304 37.304 24.0355C37.1193 24.1406 36.9744 24.294 36.8693 24.4957C36.767 24.6946 36.7145 24.9347 36.7116 25.2159Z" fill="#FFFDFD"/>
<path d="M81.7074 29.1278C81.0341 29.1278 80.4545 28.9915 79.9688 28.7188C79.4858 28.4432 79.1136 28.054 78.8523 27.5511C78.5909 27.0455 78.4602 26.4474 78.4602 25.7571C78.4602 25.0838 78.5909 24.4929 78.8523 23.9844C79.1136 23.4759 79.4815 23.0795 79.956 22.7955C80.4332 22.5114 80.9929 22.3693 81.6349 22.3693C82.0668 22.3693 82.4688 22.4389 82.8409 22.5781C83.2159 22.7145 83.5426 22.9205 83.821 23.196C84.1023 23.4716 84.321 23.8182 84.4773 24.2358C84.6335 24.6506 84.7116 25.1364 84.7116 25.6932V26.1918H79.1847V25.0668H83.0028C83.0028 24.8054 82.946 24.5739 82.8324 24.3722C82.7188 24.1705 82.5611 24.0128 82.3594 23.8991C82.1605 23.7827 81.929 23.7244 81.6648 23.7244C81.3892 23.7244 81.1449 23.7884 80.9318 23.9162C80.7216 24.0412 80.5568 24.2102 80.4375 24.4233C80.3182 24.6335 80.2571 24.8679 80.2543 25.1264V26.196C80.2543 26.5199 80.3139 26.7997 80.4332 27.0355C80.5554 27.2713 80.7273 27.4531 80.9489 27.581C81.1705 27.7088 81.4332 27.7727 81.7372 27.7727C81.9389 27.7727 82.1236 27.7443 82.2912 27.6875C82.4588 27.6307 82.6023 27.5455 82.7216 27.4318C82.8409 27.3182 82.9318 27.179 82.9943 27.0142L84.6733 27.125C84.5881 27.5284 84.4134 27.8807 84.1491 28.1818C83.8878 28.4801 83.5497 28.7131 83.1349 28.8807C82.723 29.0455 82.2472 29.1278 81.7074 29.1278ZM87.7116 25.2159V29H85.8963V22.4545H87.6264V23.6094H87.7031C87.848 23.2287 88.0909 22.9276 88.4318 22.706C88.7727 22.4815 89.1861 22.3693 89.6719 22.3693C90.1264 22.3693 90.5227 22.4688 90.8608 22.6676C91.1989 22.8665 91.4616 23.1506 91.6491 23.5199C91.8366 23.8864 91.9304 24.3239 91.9304 24.8324V29H90.1151V25.1562C90.1179 24.7557 90.0156 24.4432 89.8082 24.2188C89.6009 23.9915 89.3153 23.8778 88.9517 23.8778C88.7074 23.8778 88.4915 23.9304 88.304 24.0355C88.1193 24.1406 87.9744 24.294 87.8693 24.4957C87.767 24.6946 87.7145 24.9347 87.7116 25.2159ZM97.4393 24.696V26.1364H93.4592V24.696H97.4393ZM98.9862 29V22.4545H100.746V23.5966H100.814C100.934 23.1903 101.134 22.8835 101.415 22.6761C101.696 22.4659 102.02 22.3608 102.387 22.3608C102.478 22.3608 102.576 22.3665 102.681 22.3778C102.786 22.3892 102.878 22.4048 102.958 22.4247V24.0355C102.873 24.0099 102.755 23.9872 102.604 23.9673C102.453 23.9474 102.316 23.9375 102.191 23.9375C101.924 23.9375 101.685 23.9957 101.475 24.1122C101.267 24.2259 101.103 24.3849 100.98 24.5895C100.861 24.794 100.801 25.0298 100.801 25.2969V29H98.9862ZM108.094 26.2131V22.4545H109.909V29H108.166V27.8111H108.098C107.95 28.1946 107.705 28.5028 107.361 28.7358C107.02 28.9687 106.604 29.0852 106.112 29.0852C105.675 29.0852 105.29 28.9858 104.957 28.7869C104.625 28.5881 104.365 28.3054 104.178 27.9389C103.993 27.5724 103.899 27.1335 103.896 26.6222V22.4545H105.712V26.2983C105.714 26.6847 105.818 26.9901 106.023 27.2145C106.227 27.4389 106.501 27.5511 106.845 27.5511C107.064 27.5511 107.268 27.5014 107.459 27.402C107.649 27.2997 107.803 27.1491 107.919 26.9503C108.038 26.7514 108.097 26.5057 108.094 26.2131Z" fill="#FFFEFE"/>
</svg>
